<mxfile host="drawio-plugin" modified="2021-12-04T10:10:11.685Z" agent="5.0 (Macintosh; Intel Mac OS X 12_0_1) AppleWebKit/537.36 (KHTML, like Gecko) Chrome/89.0.4389.114 Safari/537.36" version="14.7.4" etag="DkfBRBl7Muz4WitvTmpS" type="embed"><diagram id="0QaY-Sn5gVu5ALztzFYw" name="Page-1"><mxGraphModel dx="666" dy="788" grid="1" gridSize="10" guides="1" tooltips="1" connect="1" arrows="1" fold="1" page="1" pageScale="1" pageWidth="850" pageHeight="1100" math="0" shadow="0"><root><mxCell id="0"/><mxCell id="1" parent="0"/><mxCell id="5" value="" style="whiteSpace=wrap;html=1;aspect=fixed;" vertex="1" parent="1"><mxGeometry x="170" y="120" width="590" height="590" as="geometry"/></mxCell><mxCell id="2" value="" style="rounded=0;whiteSpace=wrap;html=1;" vertex="1" parent="1"><mxGeometry x="80" y="80" width="710" height="670" as="geometry"/></mxCell><mxCell id="11" value="" style="edgeStyle=orthogonalEdgeStyle;rounded=0;orthogonalLoop=1;jettySize=auto;html=1;" edge="1" parent="1" source="3" target="4"><mxGeometry relative="1" as="geometry"/></mxCell><mxCell id="3" value="Check In&amp;nbsp;" style="rounded=1;whiteSpace=wrap;html=1;" vertex="1" parent="1"><mxGeometry x="560" y="210" width="70" height="10" as="geometry"/></mxCell><mxCell id="4" value="Check Out" style="rounded=1;whiteSpace=wrap;html=1;" vertex="1" parent="1"><mxGeometry x="650" y="210" width="120" height="20" as="geometry"/></mxCell><mxCell id="6" value="&lt;h1&gt;Name&lt;/h1&gt;&lt;div&gt;some info.&lt;/div&gt;" style="text;html=1;strokeColor=none;fillColor=none;spacing=5;spacingTop=-20;whiteSpace=wrap;overflow=hidden;rounded=0;" vertex="1" parent="1"><mxGeometry x="90" y="110" width="190" height="120" as="geometry"/></mxCell><mxCell id="7" value="Working Record" style="swimlane;fontStyle=0;childLayout=stackLayout;horizontal=1;startSize=26;horizontalStack=0;resizeParent=1;resizeParentMax=0;resizeLast=0;collapsible=1;marginBottom=0;" vertex="1" parent="1"><mxGeometry x="180" y="170" width="370" height="130" as="geometry"/></mxCell><mxCell id="9" value="id EmployId checkIn                  checkOut&#10;1, 1.            time of check in" style="text;strokeColor=none;fillColor=none;align=left;verticalAlign=top;spacingLeft=4;spacingRight=4;overflow=hidden;rotatable=0;points=[[0,0.5],[1,0.5]];portConstraint=eastwest;" vertex="1" parent="1"><mxGeometry x="180" y="196" width="370" height="104" as="geometry"/></mxCell></root></mxGraphModel></diagram></mxfile>